<svg xmlns="http://www.w3.org/2000/svg" xmlns:xlink="http://www.w3.org/1999/xlink" width="77" height="70" viewBox="0 0 77 70">
  <defs>
    <clipPath id="clip-path">
      <rect id="Rectangle_47" data-name="Rectangle 47" width="77" height="70" transform="translate(495 896)" fill="#fff" stroke="#707070" stroke-width="1"/>
    </clipPath>
  </defs>
  <g id="Mask_Group_10" data-name="Mask Group 10" transform="translate(-495 -896)" clip-path="url(#clip-path)">
    <path id="spring-seeklogo.com" d="M60.751,3.48a30.846,30.846,0,0,1-3.567,6.333A33.522,33.522,0,1,0,10.4,57.836l1.235,1.1A33.469,33.469,0,0,0,66.614,35.678c.913-8.543-1.592-19.348-5.864-32.2ZM15.164,58.028a2.868,2.868,0,1,1-2.227-4.68,2.835,2.835,0,0,1,1.8.644,2.88,2.88,0,0,1,.426,4.037Zm45.448-10.04C52.347,59.011,34.695,55.3,23.376,55.827c0,0-2.01.122-4.028.452,0,0,.757-.322,1.74-.7,7.943-2.767,11.7-3.306,16.53-5.785,9.091-4.628,18.078-14.755,19.949-25.29C54.1,34.643,43.612,43.351,34.051,46.892,27.5,49.31,15.668,51.659,15.668,51.659l-.478-.252c-8.056-3.924-8.3-21.384,6.342-27.022,6.412-2.471,12.545-1.114,19.47-2.767C48.4,19.862,56.949,14.311,60.429,7.073c3.9,11.579,8.587,29.71.183,40.915Z" transform="translate(501 897.898)" fill="#cdcdcd"/>
  </g>
</svg>