<svg xmlns="http://www.w3.org/2000/svg" xmlns:xlink="http://www.w3.org/1999/xlink" width="77" height="70" viewBox="0 0 77 70">
  <defs>
    <clipPath id="clip-path">
      <rect id="Rectangle_48" data-name="Rectangle 48" width="77" height="70" transform="translate(403 896)" fill="#fff" stroke="#707070" stroke-width="1"/>
    </clipPath>
  </defs>
  <g id="Mask_Group_11" data-name="Mask Group 11" transform="translate(-403 -896)" clip-path="url(#clip-path)">
    <path id="Icon_simple-javascript" data-name="Icon simple-javascript" d="M0,0H66.237V67.18H0ZM60.811,51.158c-.483-3.065-2.451-5.64-8.288-8.042-2.031-.966-4.289-1.638-4.959-3.191a3.35,3.35,0,0,1-.127-1.973c.414-1.808,2.525-2.351,4.181-1.847a4.513,4.513,0,0,1,2.694,2.519c2.854-1.892,2.854-1.892,4.844-3.149a11.538,11.538,0,0,0-1.617-2.183c-1.739-1.973-4.054-2.981-7.821-2.894l-1.946.249a8.541,8.541,0,0,0-3.149,15.328c3.767,2.855,9.276,3.482,9.98,6.172.662,3.275-2.4,4.325-5.426,3.947-2.238-.5-3.477-1.64-4.844-3.74l-5.051,2.942a11.314,11.314,0,0,0,2.235,3.1c4.8,4.915,16.808,4.663,18.963-2.81a9.6,9.6,0,0,0,.2-4.619l.127.188ZM36.019,30.878h-6.2c0,5.425-.025,10.816-.025,16.249,0,3.449.174,6.614-.381,7.589-.911,1.929-3.257,1.682-4.322,1.344A5.367,5.367,0,0,1,22.8,53.666a2.4,2.4,0,0,0-.351-.549l-5.037,3.149a9.859,9.859,0,0,0,3.654,4.246,12,12,0,0,0,8.851,1.134,7.77,7.77,0,0,0,5-3.95c1.408-2.6,1.109-5.794,1.1-9.366.033-5.749,0-11.5,0-17.3l.011-.157Z" transform="translate(409 897.582)" opacity="0.1"/>
  </g>
</svg>