<svg xmlns="http://www.w3.org/2000/svg" xmlns:xlink="http://www.w3.org/1999/xlink" width="77" height="70" viewBox="0 0 77 70">
  <defs>
    <clipPath id="clip-path">
      <rect id="Rectangle_49" data-name="Rectangle 49" width="77" height="70" transform="translate(302 896)" fill="#fff" stroke="#707070" stroke-width="1"/>
    </clipPath>
  </defs>
  <g id="Mask_Group_12" data-name="Mask Group 12" transform="translate(-302 -896)" clip-path="url(#clip-path)">
    <path id="Icon_awesome-java" data-name="Icon awesome-java" d="M34.773,39.972a20.226,20.226,0,0,1,2.944-1.6s-4.868.894-9.711,1.3a87.118,87.118,0,0,1-15.485.166C4.961,38.822,16.672,36,16.672,36A21.987,21.987,0,0,0,6.533,38.426C-.071,41.671,22.886,43.153,34.773,39.972Zm-10.743-4.1c-2.39-5.455-10.453-10.245,0-18.626C37.07,6.8,30.383,0,30.383,0c2.7,10.795-9.51,14.065-13.925,20.772-3.006,4.586,1.472,9.5,7.573,15.1ZM38.446,13.362c.013,0-22.039,5.6-11.51,17.91,3.107,3.628-.818,6.9-.818,6.9s7.887-4.139,4.264-9.313c-3.384-4.829-5.975-7.23,8.063-15.5Zm-.767,34.556a1.555,1.555,0,0,1-.252.332c16.139-4.305,10.2-15.189,2.491-12.43a2.185,2.185,0,0,0-1.031.8,8.755,8.755,0,0,1,1.384-.383c3.9-.83,9.5,5.3-2.591,11.676Zm5.932,7.959s1.824,1.52-2,2.708c-7.283,2.236-30.291,2.913-36.681.089-2.3-1.009,2.013-2.427,3.371-2.721a8.99,8.99,0,0,1,2.227-.255c-2.554-1.827-16.516,3.59-7.095,5.135C29.125,65.074,50.278,58.93,43.611,55.877ZM15.489,50.588c-9.9,2.81,6.025,8.61,18.63,3.13a23.236,23.236,0,0,1-3.547-1.763,36.261,36.261,0,0,1-13.334.575c-4.214-.485-1.748-1.942-1.748-1.942ZM38.107,63a93.905,93.905,0,0,1-29.347.46c0-.013,1.484,1.239,9.107,1.737,11.6.754,29.41-.422,29.825-5.991C47.692,59.211,46.887,61.319,38.107,63Zm-5.484-17.91a51.185,51.185,0,0,1-17.208.843c-4.214-.447-1.459-2.517-1.459-2.517C3.036,47.1,20.018,51.265,35.276,46.73A7.574,7.574,0,0,1,32.622,45.095Z" transform="translate(316.792 898)" opacity="0.2"/>
  </g>
</svg>