<svg xmlns="http://www.w3.org/2000/svg" xmlns:xlink="http://www.w3.org/1999/xlink" width="77" height="70" viewBox="0 0 77 70">
  <defs>
    <clipPath id="clip-path">
      <rect id="Rectangle_46" data-name="Rectangle 46" width="77" height="70" transform="translate(610 899)" fill="#fff" stroke="#707070" stroke-width="1"/>
    </clipPath>
  </defs>
  <g id="Mask_Group_9" data-name="Mask Group 9" transform="translate(-610 -899)" clip-path="url(#clip-path)">
    <g id="Beer" transform="translate(616.5 898.641)">
      <path id="Path_366" data-name="Path 366" d="M11.691,21.718a3.587,3.587,0,0,1,3.6-3.6H49.669a3.369,3.369,0,0,1,2.022.659h0a.451.451,0,0,0,.719-.375c-.015-.854-.03-1.393-.03-3.236a5.771,5.771,0,0,0-5.708-5.738h-.03A2.248,2.248,0,0,1,44.71,8.04a9.346,9.346,0,0,0-8.45-5.783A8.049,8.049,0,0,0,29.669,5a2.036,2.036,0,0,1-2.607.36,7.142,7.142,0,0,0-3.82-1.064A7.036,7.036,0,0,0,17.878,6.9a2.6,2.6,0,0,1-2.487.884,18.279,18.279,0,0,0-3.4-.27C8.245,7.515,4.5,10,4.5,13.868v.6c0,4.315,2.4,3.431,2.4,6.262V28.34c0,2.008-1.678,2.891-1.678,5.273A2.615,2.615,0,0,0,7.736,36.13h3.955Z" fill="#cdcdcd"/>
      <path id="Path_367" data-name="Path 367" d="M50.2,31.781H8.847a2.1,2.1,0,1,0,0,4.195H50.2a2.1,2.1,0,0,0,0-4.195Z" transform="translate(2.544 33.383)" fill="#cdcdcd"/>
      <path id="Path_368" data-name="Path 368" d="M50.033,16.821H45.239v-3.6a2.4,2.4,0,0,0-2.4-2.4H11.681a2.4,2.4,0,0,0-2.4,2.4v32.03A21.751,21.751,0,0,1,8.8,49.765l-.015.075a2.832,2.832,0,0,0,.419,2.022A2.75,2.75,0,0,0,11.5,53.091H43.546a2.481,2.481,0,0,0,1.663-.614,2.453,2.453,0,0,0,.779-2.4,19.013,19.013,0,0,1-.719-4.479h4.764a7.212,7.212,0,0,0,7.191-7.191V24.027A7.215,7.215,0,0,0,50.033,16.821Zm3,21.573a3.005,3.005,0,0,1-3,3H45.239V21.015h4.794a3.005,3.005,0,0,1,3,3Z" transform="translate(4.804 9.691)" fill="#cdcdcd"/>
    </g>
  </g>
</svg>